<svg xmlns="http://www.w3.org/2000/svg" height="512" width="512"><circle cx="256" cy="256" fill="#d80027" r="240"/><path d="M208.538 344V168l145.924 88z" fill="#e0e0e2"/><path d="M431.36 80.64A248 248 0 1 0 80.64 431.36 248 248 0 1 0 431.36 80.64zm-11.3 339.4a232.002 232.002 0 0 1-328.1-328.1 232.002 232.002 0 0 1 328.1 328.1zM176 464.7a7.982 7.982 0 0 1-2.963-.571A224.077 224.077 0 0 1 32 256a8 8 0 0 1 16 0 208.073 208.073 0 0 0 130.965 193.271A8 8 0 0 1 176 464.7zm40 11.605a8.072 8.072 0 0 1-1.482-.138 223.46 223.46 0 0 1-16.595-3.77 8 8 0 1 1 4.136-15.455c5.063 1.355 10.245 2.533 15.405 3.5a8 8 0 0 1-1.464 15.865zM208.538 352a8 8 0 0 1-8-8V168a8 8 0 0 1 12.131-6.851l145.924 88a8 8 0 0 1 0 13.7l-145.924 88a8 8 0 0 1-4.131 1.151zm8-169.833v147.666L338.97 256z"/></svg>